<svg width="488" height="167" viewBox="0 0 488 167" fill="none" xmlns="http://www.w3.org/2000/svg">
<path d="M221.456 37.016H240.4L271.12 112.664C273.168 117.784 276.624 119.96 281.872 120.216V127H241.296V120.216C250.256 119.832 254.224 116.888 251.28 109.592L245.776 96.152H213.648L208.272 109.72C205.584 116.632 208.912 119.832 218.896 120.216V127H186.768V120.216C192.4 119.832 195.856 117.784 198.16 112.024L225.04 45.592L221.456 37.016ZM216.848 87.832H242.32L229.392 56.216L216.848 87.832ZM307.13 49.304V63.896H326.202V72.728H307.13V109.72C307.13 115.224 311.738 117.016 317.754 117.016C320.314 117.016 324.282 116.504 326.586 115.736V122.648C321.722 125.848 316.09 128.28 308.026 128.28C298.426 128.28 289.978 123.16 289.978 113.944V72.728H281.53V66.84C288.826 64.024 297.274 57.112 300.858 49.304H307.13ZM338.618 114.072V47.128L329.786 40.984V37.528L353.466 28.952H355.77V114.072C355.77 118.424 358.458 120.216 364.218 120.6V127H330.042V120.6C335.802 120.216 338.618 118.424 338.618 114.072ZM424.886 117.4C426.678 117.4 428.342 116.76 429.622 115.992L431.414 120.728C428.342 124.568 422.326 128.28 416.95 128.28C410.806 128.28 405.942 124.696 404.022 118.936C400.31 122.776 393.526 127.896 385.718 127.896C376.63 127.896 369.334 122.136 369.334 113.304C369.334 103.192 377.27 97.944 389.174 94.104L403.638 89.24V81.432C403.638 74.392 400.182 69.912 393.526 69.912C389.686 69.912 387.638 72.6 387.638 76.056C387.638 78.744 388.662 81.304 390.326 84.248L376.374 87.704C373.686 86.936 371.254 84.76 371.254 81.432C371.254 72.088 385.974 62.616 401.334 62.616C414.006 62.616 420.278 68.248 420.278 79.384V112.792C420.278 115.992 422.454 117.4 424.886 117.4ZM386.102 108.824C386.102 113.816 390.326 117.272 395.83 117.272C398.262 117.272 401.718 116.632 403.638 115.224V96.024C393.014 99.352 386.102 101.528 386.102 108.824ZM459.553 69.912C454.177 69.912 450.465 72.856 450.465 77.72C450.465 90.392 483.617 84.248 483.617 106.648C483.617 119.576 471.201 128.28 456.993 128.28C448.033 128.28 440.097 125.336 435.233 121.624V104.984H441.633C444.193 116.248 449.825 120.856 458.273 120.856C464.161 120.856 469.153 117.528 469.153 112.152C469.153 98.456 436.385 106.264 436.385 83.48C436.385 71.704 446.753 62.616 460.961 62.616C467.745 62.616 474.529 64.664 479.521 68.12V83.608H473.121C471.713 75.032 466.977 69.912 459.553 69.912Z" fill="#FFFFFF"/>
<mask id="atlas-cut-light" maskUnits="userSpaceOnUse" x="0" y="0" width="168" height="167">
<circle cx="83.5298" cy="35" r="35" fill="white"/>
<circle cx="133" cy="84" r="35" fill="white"/>
<circle cx="84" cy="132" r="35" fill="white"/>
<circle cx="35" cy="84" r="35" fill="white"/>
<rect x="83.0833" y="37" width="68" height="68" rx="15" transform="rotate(45 83.0833 37)" fill="black"/>
</mask>
<g mask="url(#atlas-cut-light)">
<circle cx="83.5298" cy="35" r="35" fill="#FFFFFF"/>
<circle cx="133" cy="84" r="35" fill="#FFFFFF"/>
<circle cx="84" cy="132" r="35" fill="#FFFFFF"/>
<circle cx="35" cy="84" r="35" fill="#FFFFFF"/>
</g>
</svg>
