<svg width="297" height="100" viewBox="0 0 297 100" fill="none" xmlns="http://www.w3.org/2000/svg">
<path d="M34.6881 8.06397H53.6321L84.3521 83.712C86.4001 88.832 89.8561 91.008 95.1041 91.264V98.048H54.5281V91.264C63.4881 90.88 67.4561 87.936 64.5121 80.64L59.0081 67.2H26.8801L21.5041 80.768C18.8161 87.68 22.1441 90.88 32.1281 91.264V98.048H5.56707e-05V91.264C5.63206 90.88 9.08806 88.832 11.3921 83.072L38.2721 16.64L34.6881 8.06397ZM30.0801 58.88H55.5521L42.6241 27.264L30.0801 58.88ZM120.362 20.352V34.944H139.434V43.776H120.362V80.768C120.362 86.272 124.97 88.064 130.986 88.064C133.546 88.064 137.514 87.552 139.818 86.784V93.696C134.954 96.896 129.322 99.328 121.258 99.328C111.658 99.328 103.21 94.208 103.21 84.992V43.776H94.7621V37.888C102.058 35.072 110.506 28.16 114.09 20.352H120.362ZM151.85 85.12V18.176L143.018 12.032V8.57597L166.698 -3.05176e-05H169.002V85.12C169.002 89.472 171.69 91.264 177.45 91.648V98.048H143.274V91.648C149.034 91.264 151.85 89.472 151.85 85.12ZM238.118 88.448C239.91 88.448 241.574 87.808 242.854 87.04L244.646 91.776C241.574 95.616 235.558 99.328 230.182 99.328C224.038 99.328 219.174 95.744 217.254 89.984C213.542 93.824 206.758 98.944 198.95 98.944C189.862 98.944 182.566 93.184 182.566 84.352C182.566 74.24 190.502 68.992 202.406 65.152L216.87 60.288V52.48C216.87 45.44 213.414 40.96 206.758 40.96C202.918 40.96 200.87 43.648 200.87 47.104C200.87 49.792 201.894 52.352 203.558 55.296L189.606 58.752C186.918 57.984 184.486 55.808 184.486 52.48C184.486 43.136 199.206 33.664 214.566 33.664C227.238 33.664 233.51 39.296 233.51 50.432V83.84C233.51 87.04 235.686 88.448 238.118 88.448ZM199.334 79.872C199.334 84.864 203.558 88.32 209.062 88.32C211.494 88.32 214.95 87.68 216.87 86.272V67.072C206.246 70.4 199.334 72.576 199.334 79.872ZM272.785 40.96C267.409 40.96 263.697 43.904 263.697 48.768C263.697 61.44 296.849 55.296 296.849 77.696C296.849 90.624 284.433 99.328 270.225 99.328C261.265 99.328 253.329 96.384 248.465 92.672V76.032H254.865C257.425 87.296 263.057 91.904 271.505 91.904C277.393 91.904 282.385 88.576 282.385 83.2C282.385 69.504 249.617 77.312 249.617 54.528C249.617 42.752 259.985 33.664 274.193 33.664C280.977 33.664 287.761 35.712 292.753 39.168V54.656H286.353C284.945 46.08 280.209 40.96 272.785 40.96Z" fill="#1C180D"/>
</svg>
