<svg width="585" height="167" viewBox="0 0 585 167" fill="none" xmlns="http://www.w3.org/2000/svg">
<path d="M221.456 37.016H240.4L271.12 112.664C273.168 117.784 276.624 119.96 281.872 120.216V127H241.296V120.216C250.256 119.832 254.224 116.888 251.28 109.592L245.776 96.152H213.648L208.272 109.72C205.584 116.632 208.912 119.832 218.896 120.216V127H186.768V120.216C192.4 119.832 195.856 117.784 198.16 112.024L225.04 45.592L221.456 37.016ZM216.848 87.832H242.32L229.392 56.216L216.848 87.832ZM343.61 63.896V111.512C343.61 115.608 345.018 117.016 349.114 118.04L351.93 118.68V124.568L328.89 128.28H326.586V117.528C321.594 122.648 315.194 128.28 306.746 128.28C296.506 128.28 289.594 121.112 289.594 110.104V80.408C289.594 75.416 287.802 73.496 281.53 72.728V66.2L306.746 63.896V105.112C306.746 113.176 310.202 116.76 316.474 116.76C320.058 116.76 324.026 115.224 326.458 113.048V80.408C326.458 75.416 324.666 73.496 318.394 72.728V66.2L343.61 63.896ZM393.945 120.6V127H357.209V120.6C362.969 120.216 365.657 118.424 365.657 114.072V80.792L356.953 74.648V71.064L380.633 62.616H382.809V76.568C388.313 69.4 393.561 62.616 400.857 62.616C407.897 62.616 411.225 69.656 411.353 76.184L400.089 83.736H397.529C395.993 79.512 394.201 76.696 390.489 76.696C387.801 76.696 385.625 78.232 382.809 80.792V114.072C382.809 118.424 385.369 120.216 393.945 120.6ZM432.358 54.296C426.47 54.296 421.734 49.432 421.734 43.544C421.734 37.656 426.47 32.92 432.358 32.92C438.374 32.92 443.11 37.656 443.11 43.544C443.11 49.432 438.374 54.296 432.358 54.296ZM440.934 114.072C440.934 118.424 443.75 120.216 449.51 120.6V127H415.334V120.6C421.094 120.216 423.782 118.424 423.782 114.072V80.792L415.078 74.648V71.064L438.758 62.616H440.934V114.072ZM481.851 105.496C478.779 105.496 475.835 105.112 473.019 104.472C470.331 106.776 469.179 109.08 469.179 111C469.179 113.56 471.355 114.456 475.963 114.456H499.131C510.523 114.456 517.947 120.216 517.947 129.816C517.947 145.816 499.643 157.72 477.755 157.72C462.267 157.72 450.107 152.344 450.107 142.616C450.107 135.832 456.763 131.224 465.595 128.92C460.219 127.256 456.507 123.16 456.507 118.168C456.507 112.408 462.267 107.288 469.051 103.192C460.603 99.992 455.099 93.464 455.099 85.144C455.099 71.704 467.899 62.616 481.979 62.616C487.867 62.616 493.115 63.896 497.339 66.072H518.843V74.904H506.683C507.835 77.208 508.475 79.64 508.475 82.2C508.475 96.024 496.315 105.496 481.851 105.496ZM483.259 99.608C489.275 99.608 492.219 93.464 492.219 85.144C492.219 76.568 488.379 68.248 481.211 68.248C475.323 68.248 472.379 74.264 472.379 82.584C472.379 91.416 476.347 99.608 483.259 99.608ZM464.955 138.648C464.955 146.456 472.507 150.168 481.979 150.168C494.523 150.168 503.099 144.28 503.099 137.368C503.099 131.736 498.491 129.688 491.707 129.688H469.307C466.235 132.248 464.955 135.448 464.955 138.648ZM578.261 117.4C580.053 117.4 581.717 116.76 582.997 115.992L584.789 120.728C581.717 124.568 575.701 128.28 570.325 128.28C564.181 128.28 559.317 124.696 557.397 118.936C553.685 122.776 546.901 127.896 539.093 127.896C530.005 127.896 522.709 122.136 522.709 113.304C522.709 103.192 530.645 97.944 542.549 94.104L557.013 89.24V81.432C557.013 74.392 553.557 69.912 546.901 69.912C543.061 69.912 541.013 72.6 541.013 76.056C541.013 78.744 542.037 81.304 543.701 84.248L529.749 87.704C527.061 86.936 524.629 84.76 524.629 81.432C524.629 72.088 539.349 62.616 554.709 62.616C567.381 62.616 573.653 68.248 573.653 79.384V112.792C573.653 115.992 575.829 117.4 578.261 117.4ZM539.477 108.824C539.477 113.816 543.701 117.272 549.205 117.272C551.637 117.272 555.093 116.632 557.013 115.224V96.024C546.389 99.352 539.477 101.528 539.477 108.824Z" fill="#1C180D"/>
<mask id="auriga-cut" maskUnits="userSpaceOnUse" x="0" y="0" width="168" height="167">
<circle cx="83.5298" cy="35" r="35" fill="white"/>
<circle cx="133" cy="84" r="35" fill="white"/>
<circle cx="84" cy="132" r="35" fill="white"/>
<circle cx="35" cy="84" r="35" fill="white"/>
<rect x="83.0833" y="37" width="68" height="68" rx="15" transform="rotate(45 83.0833 37)" fill="black"/>
</mask>
<g mask="url(#auriga-cut)">
<circle cx="83.5298" cy="35" r="35" fill="#1C180D"/>
<circle cx="133" cy="84" r="35" fill="#1C180D"/>
<circle cx="84" cy="132" r="35" fill="#1C180D"/>
<circle cx="35" cy="84" r="35" fill="#1C180D"/>
</g>
</svg>
