<svg width="399" height="125" viewBox="0 0 399 125" fill="none" xmlns="http://www.w3.org/2000/svg">
<path d="M34.6879 4.09602H53.6319L84.3519 79.744C86.3999 84.864 89.8559 87.04 95.1039 87.296V94.08H54.5279V87.296C63.4879 86.912 67.4559 83.968 64.5119 76.672L59.0079 63.232H26.8799L21.5039 76.8C18.8159 83.712 22.1439 86.912 32.1279 87.296V94.08H-6.63996e-05V87.296C5.63193 86.912 9.08793 84.864 11.3919 79.104L38.2719 12.672L34.6879 4.09602ZM30.0799 54.912H55.5519L42.6239 23.296L30.0799 54.912ZM156.842 30.976V78.592C156.842 82.688 158.25 84.096 162.346 85.12L165.162 85.76V91.648L142.122 95.36H139.818V84.608C134.826 89.728 128.426 95.36 119.978 95.36C109.738 95.36 102.826 88.192 102.826 77.184V47.488C102.826 42.496 101.034 40.576 94.7619 39.808V33.28L119.978 30.976V72.192C119.978 80.256 123.434 83.84 129.706 83.84C133.29 83.84 137.258 82.304 139.69 80.128V47.488C139.69 42.496 137.898 40.576 131.626 39.808V33.28L156.842 30.976ZM207.177 87.68V94.08H170.441V87.68C176.201 87.296 178.889 85.504 178.889 81.152V47.872L170.185 41.728V38.144L193.865 29.696H196.041V43.648C201.545 36.48 206.793 29.696 214.089 29.696C221.129 29.696 224.457 36.736 224.585 43.264L213.321 50.816H210.761C209.225 46.592 207.433 43.776 203.721 43.776C201.033 43.776 198.857 45.312 196.041 47.872V81.152C196.041 85.504 198.601 87.296 207.177 87.68ZM245.59 21.376C239.702 21.376 234.966 16.512 234.966 10.624C234.966 4.73602 239.702 1.52588e-05 245.59 1.52588e-05C251.606 1.52588e-05 256.342 4.73602 256.342 10.624C256.342 16.512 251.606 21.376 245.59 21.376ZM254.166 81.152C254.166 85.504 256.982 87.296 262.742 87.68V94.08H228.566V87.68C234.326 87.296 237.014 85.504 237.014 81.152V47.872L228.31 41.728V38.144L251.99 29.696H254.166V81.152ZM295.083 72.576C292.011 72.576 289.067 72.192 286.251 71.552C283.563 73.856 282.411 76.16 282.411 78.08C282.411 80.64 284.587 81.536 289.195 81.536H312.363C323.755 81.536 331.179 87.296 331.179 96.896C331.179 112.896 312.875 124.8 290.987 124.8C275.499 124.8 263.339 119.424 263.339 109.696C263.339 102.912 269.995 98.304 278.827 96C273.451 94.336 269.739 90.24 269.739 85.248C269.739 79.488 275.499 74.368 282.283 70.272C273.835 67.072 268.331 60.544 268.331 52.224C268.331 38.784 281.131 29.696 295.211 29.696C301.099 29.696 306.347 30.976 310.571 33.152H332.075V41.984H319.915C321.067 44.288 321.707 46.72 321.707 49.28C321.707 63.104 309.547 72.576 295.083 72.576ZM296.491 66.688C302.507 66.688 305.451 60.544 305.451 52.224C305.451 43.648 301.611 35.328 294.443 35.328C288.555 35.328 285.611 41.344 285.611 49.664C285.611 58.496 289.579 66.688 296.491 66.688ZM278.187 105.728C278.187 113.536 285.739 117.248 295.211 117.248C307.755 117.248 316.331 111.36 316.331 104.448C316.331 98.816 311.723 96.768 304.939 96.768H282.539C279.467 99.328 278.187 102.528 278.187 105.728ZM391.493 84.48C393.285 84.48 394.949 83.84 396.229 83.072L398.021 87.808C394.949 91.648 388.933 95.36 383.557 95.36C377.413 95.36 372.549 91.776 370.629 86.016C366.917 89.856 360.133 94.976 352.325 94.976C343.237 94.976 335.941 89.216 335.941 80.384C335.941 70.272 343.877 65.024 355.781 61.184L370.245 56.32V48.512C370.245 41.472 366.789 36.992 360.133 36.992C356.293 36.992 354.245 39.68 354.245 43.136C354.245 45.824 355.269 48.384 356.933 51.328L342.981 54.784C340.293 54.016 337.861 51.84 337.861 48.512C337.861 39.168 352.581 29.696 367.941 29.696C380.613 29.696 386.885 35.328 386.885 46.464V79.872C386.885 83.072 389.061 84.48 391.493 84.48ZM352.709 75.904C352.709 80.896 356.933 84.352 362.437 84.352C364.869 84.352 368.325 83.712 370.245 82.304V63.104C359.621 66.432 352.709 68.608 352.709 75.904Z" fill="#1C180D"/>
</svg>
